PathFileType	4	(X/Y/Z)	C:/Users/beibeiliu/ov580/test_trc/User3\sequence.9_training_dense_right.trc
DataRate	CameraRate	NumFrames	NumMarkers	Units	OrigDataRate	OrigDataStartFrame	OrigNumFrames
120	120	22	19	mm	120	80	213
Frame#	Time	ThumbCMC			ThumbMCP			ThumbIP			ThumbTip			IndexMCP			IndexPIP			IndexTip			MiddleMCP			MiddlePIP			MiddleTip			RingMCP			RingPIP			RingTip			PinkyMCP			PinkyPIP			PinkyTip			BackHand1			BackHand2			BackHand3	
		X0	Y0	Z0	X1	Y1	Z1	X2	Y2	Z2	X3	Y3	Z3	X4	Y4	Z4	X5	Y5	Z5	X6	Y6	Z6	X7	Y7	Z7	X8	Y8	Z8	X9	Y9	Z9	X10	Y10	Z10	X11	Y11	Z11	X12	Y12	Z12	X13	Y13	Z13	X14	Y14	Z14	X15	Y15	Z15	X16	Y16	Z16	X17	Y17	Z17	X18	Y18	Z18	
79	0.658333	153.674	6.74218	35.7088	130.286	11.32	10.2502	115.944	4.36502	-12.6378	111.359	-15.3406	-32.3646	177.182	7.59131	-38.8217	168.752	9.95084	-68.1899	146.517	14.375	-85.153	160.586	-17.2643	-42.4472	127.748	-19.71	-48.2757	121.448	-20.012	-5.25875	152.822	-38.0954	-31.4175	119.862	-37.4885	-25.4287	125.096	-31.413	8.23388	146.97	-58.9531	-22.9901	124.316	-47.4236	-14.9062	129.658	-39.8841	16.8596	191.228	-40.8051	11.9732	193.694	-41.8115	40.2058	188.093	-9.36921	29.0283	
80	0.666667	154.491	7.86306	38.8881	130.62	12.8744	9.5662	116.268	7.8253	-14.9684	108.821	-10.3906	-34.7027	179.672	6.99989	-36.7399	167.271	15.6286	-65.119	138.41	14.8922	-76.281	161.278	-15.5366	-42.8608	129.227	-17.9386	-48.3665	121.598	-16.5154	-8.95787	154.175	-35.3103	-32.3617	123.186	-33.9304	-27.4984	125.342	-28.6309	6.8352	150.542	-52.5277	-23.6952	123.763	-46.5893	-13.4282	133.459	-39.0837	15.9982	191.268	-37.6004	12.5759	192.074	-42.4355	41.5505	187.829	-8.21679	30.9938	
81	0.675	152.893	7.78924	39.9832	130.512	13.1925	13.0361	116.671	11.6834	-13.6718	114.249	-8.93076	-30.6677	178.875	13.5975	-33.8728	163.762	19.4852	-61.8514	130.675	16.9027	-65.3437	161.7	-13.1465	-44.7553	129.011	-14.4123	-45.2818	124.098	-14.2682	-7.6359	153.089	-32.9959	-33.9724	122.133	-30.1723	-25.9502	127.651	-31.1308	8.04537	149.966	-50.094	-25.1506	124.488	-46.1229	-15.11	130.147	-38.4827	13.6695	190.536	-37.4527	14.7395	192.608	-45.7143	43.1132	188.402	-10.979	31.1074	
82	0.683333	151.152	10.8341	39.9377	130.672	14.3053	13.1737	118.955	11.1815	-15.0472	114.705	-7.06446	-32.9961	177.607	12.13	-34.6289	162.503	19.8005	-60.0122	132.052	15.1686	-58.903	161.986	-8.35898	-41.129	130.913	-6.47724	-47.6135	126.066	-14.4698	-4.28205	152.008	-29.3091	-34.233	122.569	-28.1069	-24.7821	126.576	-28.3478	5.32066	153.032	-48.184	-24.2264	124.735	-44.8867	-16.0984	129.287	-37.4176	11.613	190.57	-36.6324	9.72683	192.938	-41.4242	40.3249	186.789	-7.26831	29.6894	
83	0.691667	151.683	7.60475	41.7182	128.916	16.1534	12.7642	117.146	13.9296	-12.8104	113.19	-4.67408	-33.8568	176.588	13.4644	-31.3117	157.588	23.6802	-59.845	125.406	19.5133	-53.1493	161.051	-8.62311	-40.6554	128.528	-7.84722	-45.1143	124.783	-12.8233	-5.4331	153.644	-26.3457	-31.3673	123.537	-29.5709	-27.8774	126.669	-24.1817	7.50785	148.25	-45.5717	-25.7144	124.176	-39.8489	-14.3591	129.869	-35.7632	12.2634	190.614	-37.3652	11.0647	190.73	-44.8334	43.8791	188.101	-6.94207	31.136	
84	0.7	150.179	8.82125	42.0827	129.899	14.7505	14.0743	114.795	15.0546	-14.5652	111.616	-3.26609	-30.6086	174.144	21.5459	-31.4129	155.575	24.4955	-58.7474	123.821	20.1284	-53.9819	157.615	-4.4271	-38.0507	122.599	-6.57566	-40.9117	124.479	-15.1635	-1.98948	148.889	-23.2881	-33.6223	120.353	-31.3712	-25.6161	124.87	-23.3001	6.79792	150.964	-46.3736	-23.3439	122.089	-43.4097	-15.0922	130.087	-34.2152	11.7771	188.576	-29.996	9.49857	190.443	-41.0002	40.3699	185.371	-6.59946	29.7485	
85	0.708333	149.029	9.50896	41.1112	126.866	16.9472	16.0727	115.077	13.3142	-12.1574	107.68	-0.457737	-31.8511	171.133	21.5628	-28.4388	156.278	30.2722	-57.6798	122.713	24.7791	-58.7101	152.583	-0.398773	-40.4995	122.786	-6.12085	-42.4369	123.202	-13.2779	0.395092	146.584	-26.7133	-33.1353	119.068	-26.0818	-25.6571	125.322	-27.3891	9.50087	145.591	-43.1227	-24.6522	121.426	-41.0186	-14.229	133.138	-32.6887	14.2821	187.158	-29.893	12.514	187.922	-40.6787	43.5833	184.449	-6.58503	34.4078	
86	0.716667	147.342	11.4669	42.3073	124.001	19.0745	19.0056	111.614	17.8498	-12.7149	105.302	2.04348	-31.1086	171.03	24.1796	-29.8237	158.91	32.089	-54.8693	124.553	26.7642	-65.4664	153.553	-2.07484	-39.072	119.732	-5.88982	-39.9151	122.649	-11.7629	0.974383	144.247	-25.1129	-33.1567	116.684	-24.7189	-21.4628	125.005	-21.5972	10.9275	145.592	-41.8725	-22.8703	120.604	-36.9305	-11.8436	129.465	-32.8246	15.6034	185.444	-29.8488	10.5065	190.404	-39.876	42.0423	184.428	-3.35392	31.7007	
87	0.725	147.353	9.6162	45.3107	126.168	18.0628	15.334	111.247	17.9809	-12.7768	107.703	-0.416521	-33.5444	171.663	21.7683	-29.3518	161.878	32.4893	-54.5345	135.1	37.1153	-70.5383	151.16	-1.42544	-39.7412	119.778	-2.50314	-38.7533	119.718	-13.2338	-1.14664	144.635	-23.7531	-31.9486	116.42	-27.7013	-20.8421	122.587	-23.7241	10.7228	143.417	-44.6977	-22.4389	120.629	-38.0482	-10.1251	131.987	-35.5006	19.1358	186.968	-32.8518	12.44	186.702	-39.841	40.9153	182.429	-5.56354	35.2015	
88	0.733333	147.856	9.11592	45.8799	124.647	19.6082	17.0385	113.5	15.5876	-10.2232	109.688	-2.85021	-30.3164	172.199	18.5377	-29.1062	164.85	29.5001	-58.884	142.907	36.9235	-77.9487	151.401	-6.98165	-40.2723	120.158	-6.67711	-39.9861	119.075	-11.9454	1.45691	143.166	-22.4454	-31.2418	115.165	-25.5308	-19.2871	124.387	-26.0189	14.2314	144.663	-43.2557	-22.1642	118.645	-39.1465	-8.30421	132.203	-33.6057	20.5149	184.18	-30.8494	9.34183	186.937	-38.6512	39.8473	183.66	-4.66843	33.1447	
89	0.741667	149.94	9.49911	39.4332	127.125	17.1427	15.8449	113.762	15.778	-13.9248	109.237	-2.37598	-29.4974	173.534	17.3019	-30.1074	169.523	28.9376	-55.0127	156.313	30.7565	-83.7234	152.968	-8.63989	-38.3247	118.985	-6.30981	-37.5353	121.215	-11.2846	2.57243	143.852	-24.9518	-31.5802	117.168	-28.5685	-21.4553	121.714	-22.8873	11.5253	142.54	-47.378	-22.2799	119.798	-38.843	-11.6556	127.138	-34.5969	18.021	185.466	-36.8418	12.1062	186.52	-43.9341	39.9382	185.587	-4.22497	30.3794	
90	0.75	150.242	10.0335	41.0572	128.296	17.7583	11.7598	115.528	14.7432	-17.7378	108.703	-4.13935	-35.0954	177.157	17.09	-32.1052	174.232	20.2815	-57.1822	167.148	27.2866	-82.2948	155.965	-11.0259	-38.3493	121.534	-7.51564	-39.0108	118.679	-12.8384	-1.04766	147.224	-30.6234	-30.7093	116.717	-27.8212	-18.3449	124.994	-24.8365	13.4719	145.158	-47.7427	-21.2531	119.606	-42.4257	-9.33917	128.219	-34.8781	15.9191	186.241	-35.0264	9.39429	186.809	-41.3442	45.3199	187.084	-4.69317	30.7543	
91	0.758333	153.604	6.55373	38.3274	131.326	17.3961	9.30182	117.804	12.6007	-13.3369	110.171	-2.67192	-35.3945	179.664	8.79858	-33.8256	178.727	17.1348	-61.7438	175.421	19.3662	-85.5337	156.338	-13.185	-40.2212	121.227	-11.1249	-38.4667	120.953	-14.0512	-0.518473	147.239	-30.8976	-31.9224	117.273	-31.7143	-18.162	124.434	-24.5177	10.9998	145.47	-52.8484	-21.6455	121.175	-41.5665	-9.07869	129.215	-35.4529	15.9404	188.415	-38.6466	8.76154	188.539	-45.2832	43.2415	187.3	-7.90532	32.4758	
92	0.766667	155.805	7.86235	35.0494	135.823	12.694	9.65967	120.502	13.4007	-16.7253	115.636	-5.47332	-34.5815	182.888	6.60135	-34.6828	184.946	10.5895	-63.1089	182.655	9.25382	-87.1545	159.252	-16.205	-41.6223	125.022	-11.5126	-40.9416	121.487	-17.8351	-4.79251	149.145	-32.6836	-31.4244	120.609	-33.0158	-23.1658	128.863	-27.4564	13.987	143.897	-52.8804	-23.4722	123.202	-43.3689	-13.3732	131.468	-34.5719	16.8745	189.625	-42.33	10.3652	189.434	-48.5424	44.5412	187.836	-10.8717	30.8957	
93	0.775	159.283	6.66185	34.8342	137.196	15.1301	9.13792	125.53	11.3257	-21.782	115.406	-3.09282	-39.6047	186.964	1.20129	-34.2476	189.563	5.77351	-61.25	185.45	0.708968	-89.2296	163.894	-17.6753	-40.9267	126.915	-17.8714	-42.0264	125.428	-15.5966	-3.65271	150.552	-36.2982	-31.8726	123.621	-33.7058	-23.563	126.443	-25.5299	7.84742	147.002	-54.1442	-21.3704	123.348	-45.4556	-11.0023	133.549	-36.4059	17.1996	190.891	-46.6088	9.32788	189.432	-45.5825	46.5171	193.2	-12.1412	27.353	
94	0.783333	160.732	4.46517	37.8539	140.258	14.2854	10.6685	127.417	11.7962	-21.7251	120.181	-8.55519	-39.5244	190.229	-5.92448	-34.9289	192.369	-3.64024	-65.1031	184.668	-0.920537	-89.477	166.193	-22.0796	-42.6606	131.525	-18.4238	-44.0381	128.425	-17.0857	-5.00998	153.277	-40.3186	-33.0173	125.76	-36.9764	-23.8932	128.796	-30.3133	8.98997	151.899	-54.5283	-19.5	126.64	-43.9495	-12.1978	136.077	-35.7362	18.5224	190.735	-48.5014	11.4088	190.531	-50.0595	41.7483	195.404	-13.0432	32.0676	
95	0.791667	163.373	6.87526	35.2515	143.227	15.6083	8.48429	130.251	10.3143	-24.072	124.62	-9.77813	-36.325	194.296	-6.16886	-31.8599	194.174	-8.3066	-64.921	178.026	-5.39167	-87.6809	170.673	-27.7463	-40.7527	137.014	-19.2402	-47.69	130.624	-18.7082	-9.04918	158.38	-40.4318	-31.7241	128.585	-35.4378	-25.8002	132.306	-29.2035	7.5307	151.795	-55.4567	-20.5802	127.218	-44.6071	-9.78341	136.499	-38.3053	16.1806	194.188	-48.1825	13.4497	192.533	-51.2459	44.2624	196.585	-18.417	28.2348	
96	0.8	166.217	7.12777	33.8382	147.326	9.33791	5.08304	133.586	7.62915	-20.634	125.853	-13.1829	-37.2387	197.6	-8.86214	-33.082	195.217	-8.93254	-64.1541	169.672	-11.8082	-82.2351	171.566	-25.8922	-45.4363	139.868	-23.8099	-48.6582	133.338	-17.0969	-12.0997	159.527	-44.8681	-30.8576	129.068	-36.0582	-22.8159	137.178	-25.6603	6.99227	152.14	-61.7425	-19.826	130.423	-43.0957	-11.4645	134.843	-38.966	15.914	194.118	-48.9438	15.6273	193.599	-49.7538	44.3321	198.347	-18.2686	32.6397	
97	0.808333	167.185	5.9919	32.4859	149.702	8.12839	5.29046	133.863	8.50016	-22.2117	127.821	-17.5737	-35.9502	198.124	-16.241	-33.4201	190.487	-16.2885	-65.5045	160.157	-12.526	-73.9849	174.623	-29.0907	-46.5613	143.999	-22.7722	-51.0985	137.62	-19.1937	-11.0089	158.269	-45.8829	-33.8458	131.486	-41.0359	-26.4224	137.52	-32.6437	6.29425	154.307	-60.157	-19.9315	128.757	-48.5178	-9.76168	138.435	-41.6933	18.3404	194.261	-53.8244	13.1446	195.287	-53.0889	44.0113	199.871	-19.4484	29.4386	
98	0.816667	168.519	4.13357	34.1745	148.849	9.16112	5.91334	136.37	1.97231	-21.7179	127.312	-21.6083	-37.7552	197.533	-21.7394	-34.8894	187.178	-24.0056	-66.1829	154.64	-12.2439	-68.2798	175.253	-36.6346	-46.0456	142.213	-28.4078	-50.1249	137.864	-20.4689	-14.5524	161.327	-51.2295	-31.4357	132.688	-43.1762	-27.7953	137.157	-34.1135	3.56377	153.398	-68.3892	-18.4776	131.17	-47.4781	-12.3986	140.038	-42.5399	14.5597	194.784	-54.0274	15.5398	193.917	-56.3073	47.5981	200.439	-20.9314	26.5284	
99	0.825	169.746	1.64615	29.9126	149.222	4.05574	3.05926	135.243	-2.56693	-26.5237	126.019	-26.3665	-39.577	196.239	-22.9439	-37.8234	186.662	-25.7956	-67.7954	151.725	-19.3263	-67.0099	173.894	-38.2749	-46.9041	142.677	-33.6201	-50.9922	138.272	-23.8643	-12.7616	158.436	-54.1305	-32.2929	130.198	-47.8641	-23.8569	137.954	-39.1524	6.39306	150.596	-70.884	-19.8004	128.125	-56.2348	-9.382	139.331	-44.2768	16.2643	193.429	-59.02	12.3871	194.372	-60.0449	46.3168	199.039	-24.4388	26.4904	
100	0.833333	168.776	-3.44759	28.5525	147.616	2.44578	0.0941765	131.838	-5.35747	-24.9295	126.403	-31.8477	-36.3679	193.408	-32.1029	-39.018	182.911	-34.3373	-71.7006	153.476	-30.7359	-75.1937	169.051	-46.4362	-44.6664	136.759	-40.5852	-47.2203	135.932	-30.2167	-11.2026	157.186	-60.6843	-30.2711	127.611	-50.1414	-22.8416	139.607	-39.7534	9.37536	151.662	-74.4103	-16.4523	128.832	-58.9355	-11.2972	138.798	-50.4509	17.8226	193.149	-59.8685	13.5281	193.803	-62.378	44.9347	200.261	-28.9307	24.6192	
